<?xml version="1.0" standalone="no"?><!DOCTYPE svg PUBLIC "-//W3C//DTD SVG 1.1//EN" "http://www.w3.org/Graphics/SVG/1.1/DTD/svg11.dtd"><svg t="1677745178962" class="icon" viewBox="0 0 1281 1024" version="1.1" xmlns="http://www.w3.org/2000/svg" p-id="1074" xmlns:xlink="http://www.w3.org/1999/xlink" width="160.125" height="128"><path d="M298.916179 818.401559c-146.214425 0-259.493177-36.927875-290.931774-124.756335-17.465887-49.902534-13.473684-129.746589 105.294347-232.545809a49.902534 49.902534 0 1 1 65.37232 75.352827c-67.867446 58.88499-84.335283 99.805068-76.849902 123.758284 23.454191 65.37232 267.477583 93.317739 598.830409-12.475633 269.473684-86.830409 433.653021-210.588694 472.576998-288.935673a54.892788 54.892788 0 0 0 6.487329-41.419103c-7.984405-23.454191-56.888889-49.902534-165.676413-57.387914a49.952437 49.952437 0 1 1 4.491228-99.805068c177.153996 7.984405 236.538012 71.360624 255.500975 123.259259a149.707602 149.707602 0 0 1-11.477583 119.267056c-59.883041 121.762183-268.475634 255.500975-530.962963 339.836258a1467.633528 1467.633528 0 0 1-432.654971 75.851851z" fill="#F34E79" p-id="1075"></path><path d="M298.916179 818.401559c-146.214425 0-259.493177-36.927875-290.931774-124.756335-17.465887-49.902534-13.473684-129.746589 105.294347-232.545809a49.902534 49.902534 0 1 1 65.37232 75.352827c-67.867446 58.88499-84.335283 99.805068-76.849902 123.758284 23.454191 65.37232 267.477583 93.317739 598.830409-12.475633 269.473684-86.830409 433.653021-210.588694 472.576998-288.935673a54.892788 54.892788 0 0 0 6.487329-41.419103c-7.984405-23.454191-56.888889-49.902534-165.676413-57.387914a49.952437 49.952437 0 1 1 4.491228-99.805068c177.153996 7.984405 236.538012 71.360624 255.500975 123.259259a149.707602 149.707602 0 0 1-11.477583 119.267056c-59.883041 121.762183-268.475634 255.500975-530.962963 339.836258a1467.633528 1467.633528 0 0 1-432.654971 75.851851z" fill="#F34E79" p-id="1076"></path><path d="M639.251462 0c-299.415205 0-542.939571 229.551657-542.939571 512s243.524366 512 542.939571 512 542.939571-229.551657 542.939571-512S938.666667 0 639.251462 0z m0 924.194932c-244.522417 0-443.134503-185.138402-443.134503-412.194932S395.727096 99.805068 639.251462 99.805068s443.134503 184.639376 443.134503 412.194932-199.111111 412.194932-443.134503 412.194932z" fill="#3B11D7" p-id="1077"></path><path d="M298.916179 818.401559c-146.214425 0-259.493177-36.927875-290.931774-124.756335a49.902534 49.902534 0 1 1 93.816765-33.434698c23.454191 65.37232 267.477583 93.317739 598.830409-12.475633 269.473684-86.830409 433.653021-210.588694 472.576998-288.935673a54.892788 54.892788 0 0 0 6.487329-41.419103 50.102144 50.102144 0 0 1 94.31579-33.933723 149.707602 149.707602 0 0 1-11.477583 119.267056c-59.883041 121.762183-268.475634 255.500975-530.962963 339.836258a1467.633528 1467.633528 0 0 1-432.654971 75.851851z" fill="#F34E79" p-id="1078"></path></svg>