<svg t="1675439890198" class="icon" viewBox="0 0 1024 1024" version="1.1" xmlns="http://www.w3.org/2000/svg" p-id="4850" width="32" height="32">
  <path d="M698.2 888.5H302.8c-13.8 0-25-11.2-25-25V827c-33.4-5.8-71.3-22.1-102.2-44.8-48.8-35.8-75.7-82.6-75.7-131.6V508.8c0-42.9 34.9-77.7 77.7-77.7h645.8c42.9 0 77.7 34.9 77.7 77.7v141.7c0 49.1-26.9 95.8-75.7 131.6-31 22.7-68.8 39.1-102.2 44.8v36.6c0 13.9-11.2 25-25 25z m-370.4-50h345.4v-34.3c0-13.8 11.2-25 25-25 23.2 0 62.4-11.6 97.6-37.4 20.6-15.2 55.3-47.2 55.3-91.3V508.8c0-15.3-12.4-27.7-27.7-27.7H177.6c-15.3 0-27.7 12.4-27.7 27.7v141.7c0 44.2 34.6 76.2 55.3 91.3 35.2 25.9 74.4 37.4 97.6 37.4 13.8 0 25 11.2 25 25v34.3z" fill="#ffffff" p-id="4851"></path>
  <path d="M124.9 543.7h751.2v40H124.9zM885.1 213.4H475.3c-11 0-20-9-20-20s9-20 20-20h409.8c11 0 20 9 20 20s-9 20-20 20zM885.1 301.2H475.3c-11 0-20-9-20-20s9-20 20-20h409.8c11 0 20 9 20 20s-9 20-20 20zM151.5 213.4h-33.8c-11 0-20-9-20-20s9-20 20-20h33.8c11 0 20 9 20 20s-8.9 20-20 20zM151.5 301.2h-33.8c-11 0-20-9-20-20s9-20 20-20h33.8c11 0 20 9 20 20s-8.9 20-20 20z" fill="#ffffff" p-id="4852"></path>
  <path d="M471.9 134.5c0-11-9-20-20-20h-0.4c-2.4 0.1-15 0.7-28.2 7.8-19.2 10.3-29.8 29-29.8 52.6v151.8c0 17.8-16.2 24.8-18 25.6l0.2-0.1c-7.2 3-12.3 10.1-12.3 18.5 0 11 9 20 20 20 2.2 0 4.3-0.4 6.3-1 0.1 0 1.5-0.6 2.1-0.8 16.4-6.9 41.7-26.9 41.7-62.1V174.9c0-10.8 4.2-14.7 7.9-16.9 5.2-3.1 11.2-3.5 11.3-3.5h-0.3c10.8-0.3 19.5-9.1 19.5-20zM375.2 134.5c0-11-9-20-20-20h-0.4c-2.4 0.1-15 0.7-28.2 7.8-19.2 10.3-29.8 29-29.8 52.6v151.8c0 17.8-16.2 24.8-18 25.6l0.2-0.1c-7.2 3-12.3 10.1-12.3 18.5 0 11 9 20 20 20 2.2 0 4.3-0.4 6.3-1 0.1 0 1.5-0.6 2.1-0.8 16.4-6.9 41.7-26.9 41.7-62.1V174.9c0-10.8 4.2-14.7 7.9-16.9 5.2-3.1 11.2-3.5 11.3-3.5h-0.3c10.8-0.3 19.5-9.1 19.5-20zM270.5 134.5c0-11-9-20-20-20h-0.4c-2.4 0.1-15 0.7-28.2 7.8-19.2 10.3-29.8 29-29.8 52.6v151.8c0 17.8-16.2 24.8-18 25.6l0.2-0.1c-7.2 3-12.3 10.1-12.3 18.5 0 11 9 20 20 20 2.2 0 4.3-0.4 6.3-1 0.1 0 1.5-0.6 2.1-0.8 16.4-6.9 41.7-26.9 41.7-62.1V174.9c0-10.8 4.2-14.7 7.9-16.9 5.2-3.1 11.2-3.5 11.3-3.5h-0.3c10.9-0.3 19.5-9.1 19.5-20z" fill="#ffffff" p-id="4853"></path>
</svg>