<svg t="1675439927015" class="icon" viewBox="0 0 1024 1024" version="1.1" xmlns="http://www.w3.org/2000/svg" p-id="6580" width="32" height="32">
  <path d="M927.289 577.885c-2.594-10.262-11.818-17.456-22.396-17.456-142.336 0-184.263-117.831-185.954-122.77a23.07 23.07 0 0 0-21.9-15.787v-92.379h22.757c3.744 0 7.42-0.913 10.735-2.65l92.402-48.501c9.405-4.939 14.231-15.652 11.683-25.97-2.549-10.318-11.795-17.569-22.418-17.569-153.559 0-281.59-129.765-283.284-131.499-0.099-0.113-0.135-0.259-0.237-0.372a874.27 874.27 0 0 1-3.462-2.774c-1.099-0.733-2.198-1.209-3.297-1.653-0.414-0.192-0.798-0.383-1.224-0.551-1.267-0.592-2.534-1.052-3.802-1.257-1.066-0.214-2.112-0.096-3.173-0.161-0.491-0.032-0.933-0.29-1.428-0.29h-0.034c-0.295 0-0.554 0.162-0.847 0.173-2.513 0.101-4.965 0.544-7.289 1.489-1.438 0.546-2.637 1.46-3.943 2.284-1.427 0.88-2.997 1.565-4.295 2.742-0.106 0.111-0.145 0.271-0.248 0.383-1.47 1.521-128.819 131.487-282.991 131.487-10.623 0-19.881 7.251-22.43 17.569-2.537 10.318 2.289 21.042 11.694 25.97l92.425 48.501a22.984 22.984 0 0 0 10.736 2.65h22.452v92.379a23.094 23.094 0 0 0-21.911 15.787c-0.406 1.229-42.581 122.77-185.943 122.77-10.578 0-19.802 7.195-22.396 17.456-2.582 10.239 2.131 20.952 11.446 25.982l90.068 48.513a23.164 23.164 0 0 0 10.95 2.752h25.407v249.533c0 12.765 10.341 23.095 23.095 23.095s23.095-10.33 23.095-23.095V875.96l46.19-12.693v18.328c0 12.765 10.341 23.095 23.095 23.095s23.095-10.33 23.095-23.095v-25.366l277.138 1.969v23.396c0 12.765 10.33 23.095 23.095 23.095s23.095-10.33 23.095-23.095v-16.749l46.19 11.542v28.279c0 12.765 10.33 23.095 23.095 23.095s23.095-10.33 23.095-23.095V655.131h25.395c3.812 0 7.578-0.947 10.961-2.752l90.079-48.513c9.314-5.029 14.028-15.742 11.434-25.981zM650.85 421.87h-46.19v-92.379h46.19v92.379z m-92.379-92.379v92.379h-92.379v-92.379h92.379z m-268.963-57.343c105.449-23.941 188.672-90.271 222.784-120.989 34.18 30.718 117.538 97.059 223.044 120.989l-21.223 11.153H310.765l-21.257-11.153z m84.204 57.343h46.19v92.379h-46.19v-92.379z m-92.38 498.578V655.131h46.19v160.24l-46.19 12.698z m92.38-18.035V655.131H650.85v156.876l-277.138-1.973z m369.517 18.759l-46.19-11.547V655.131h46.19v173.662z m65.767-219.852H215.555l-22.61-12.179c90.992-26.072 134.385-96.913 149.733-128.702h339.206c15.336 31.789 58.73 102.63 149.733 128.702l-22.621 12.179z" fill="#ffffff" p-id="6581"></path>
</svg>